<svg width="70" height="50" viewBox="0 0 70 50" fill="none" xmlns="http://www.w3.org/2000/svg">
<g clip-path="url(#clip0)">
<path d="M34.9903 20.9961C39.4031 20.9961 42.9861 24.5801 42.9861 28.9941C42.9861 33.4082 39.4031 36.9922 34.9903 36.9922C30.5774 36.9922 26.9944 33.4082 26.9944 28.9941C26.9944 24.5801 30.5774 20.9961 34.9903 20.9961Z" fill="white"/>
<path d="M34.9903 20.9961C30.5774 20.9961 26.9944 24.5801 26.9944 28.9941C26.9944 33.4082 30.5774 36.9922 34.9903 36.9922C39.4031 36.9922 42.9861 33.4082 42.9861 28.9941C42.9861 24.5801 39.4031 20.9961 34.9903 20.9961ZM34.9903 35.9961C31.1242 35.9961 27.9903 32.8613 27.9903 28.9941C27.9903 25.127 31.1242 21.9922 34.9903 21.9922C38.8564 21.9922 41.9903 25.127 41.9903 28.9941C41.9903 32.8613 38.8564 35.9961 34.9903 35.9961Z" fill="#909090"/>
<path d="M52.4854 0C57.1618 0 61.5454 1.83594 64.855 5.19531C68.1548 8.53516 69.9805 12.9883 69.9805 17.7246V22.9688H0.0976562V17.7148C0.0976562 12.9883 1.91356 8.53516 5.22318 5.19531C8.52304 1.83594 12.9163 0 17.5732 0H52.4854Z" fill="#F9F9FA"/>
<path d="M52.4854 1.01562C56.8885 1.01562 61.0182 2.75391 64.1423 5.91797C67.2567 9.08203 68.9749 13.2617 68.9749 17.7246V21.9531H1.10324V17.7148C1.10324 13.252 2.82151 9.05273 5.93587 5.91797C9.03071 2.75391 13.1702 1.01562 17.5732 1.01562H52.4854ZM52.4854 0H17.5732C12.9163 0 8.52304 1.83594 5.22318 5.19531C1.91356 8.53516 0.0976562 12.9883 0.0976562 17.7148V22.9688H69.9707V17.7246C69.9707 12.9883 68.1451 8.53516 64.8452 5.19531C61.5356 1.83594 57.152 0 52.4854 0Z" fill="#909090"/>
<path d="M0.0976562 35.3613V50H69.9707V35.3613H0.0976562Z" fill="#F9F9FA"/>
<path d="M68.9652 36.377V48.9746H1.10324V36.377H68.9652ZM69.9707 35.3613H0.0976562V50H69.9707V35.3613Z" fill="#909090"/>
</g>
<defs>
<clipPath id="clip0">
<rect width="70" height="50" fill="white"/>
</clipPath>
</defs>
</svg>
