<svg width="70" height="50" viewBox="0 0 70 50" fill="none" xmlns="http://www.w3.org/2000/svg">
<path d="M34.9902 20.9961C39.403 20.9961 42.986 24.5801 42.986 28.9941C42.986 33.4082 39.403 36.9922 34.9902 36.9922C30.5774 36.9922 26.9944 33.4082 26.9944 28.9941C26.9944 24.5801 30.5774 20.9961 34.9902 20.9961Z" fill="white"/>
<path d="M34.9902 20.9961C30.5774 20.9961 26.9944 24.5801 26.9944 28.9941C26.9944 33.4082 30.5774 36.9922 34.9902 36.9922C39.403 36.9922 42.986 33.4082 42.986 28.9941C42.986 24.5801 39.403 20.9961 34.9902 20.9961ZM34.9902 35.9961C31.1241 35.9961 27.9902 32.8613 27.9902 28.9941C27.9902 25.127 31.1241 21.9922 34.9902 21.9922C38.8563 21.9922 41.9902 25.127 41.9902 28.9941C41.9902 32.8613 38.8563 35.9961 34.9902 35.9961Z" fill="#909090"/>
<path d="M17.993 0C8.05439 0 0 8.05664 0 17.998V29.0723L69.9414 16.7383C69.2971 7.39258 61.5063 0 51.9874 0H17.993Z" fill="#F9F9FA"/>
<path d="M69.9805 28.9258L0 41.2598V50H69.9805V28.9258Z" fill="#F9F9FA"/>
<path d="M51.9875 0H17.993C8.05439 0 0 8.05664 0 17.998V29.0723L69.9414 16.7383C69.2971 7.39258 61.5063 0 51.9875 0ZM0.995816 27.8906V17.998C0.995816 8.61328 8.60112 0.996094 17.993 0.996094H51.9875C60.6667 0.996094 67.8326 7.50977 68.8577 15.918L0.995816 27.8906ZM69.9805 28.9258L0 41.2598V50H69.9805V28.9258ZM0.995816 49.0039V42.1094L68.9749 30.1172V49.0039H0.995816Z" fill="#909090"/>
</svg>
