<svg width="70" height="50" viewBox="0 0 70 50" fill="none" xmlns="http://www.w3.org/2000/svg">
<g clip-path="url(#clip0)">
<path d="M2.01208 35.9961V22.002H67.9898V36.0058H2.01208V35.9961Z" fill="#909090"/>
<path d="M17.993 29.0039C17.993 25.1367 14.8592 22.002 10.993 22.002C7.1367 22.002 4.00281 25.1367 4.00281 29.0039C4.00281 32.8711 7.1367 36.0058 11.0028 36.0058C14.8592 35.9961 17.993 32.8613 17.993 29.0039ZM26.9944 22.002C30.8605 22.002 33.9944 25.1367 33.9944 29.0039C33.9944 32.8711 30.8605 36.0058 26.9944 36.0058C23.1283 36.0058 19.9944 32.8711 19.9944 29.0039C19.9944 25.1367 23.1283 22.002 26.9944 22.002ZM49.9861 29.0039C49.9861 25.1367 46.8522 22.002 42.9861 22.002C39.12 22.002 35.9861 25.1367 35.9861 29.0039C35.9861 32.8711 39.12 36.0058 42.9861 36.0058C46.8522 36.0058 49.9861 32.8613 49.9861 29.0039ZM65.9777 29.0039C65.9777 25.1367 62.8438 22.002 58.9777 22.002C55.1116 22.002 51.9777 25.1367 51.9777 29.0039C51.9777 32.8711 55.1116 36.0058 58.9777 36.0058C62.8438 35.9961 65.9777 32.8613 65.9777 29.0039Z" fill="white"/>
<path d="M52.4854 0C57.1618 0 61.5454 1.83594 64.855 5.19531C68.1548 8.53516 69.9805 12.9883 69.9805 17.7246V22.9688H0.0976562V17.7148C0.0976562 12.9883 1.91356 8.53516 5.22318 5.19531C8.52304 1.83594 12.9163 0 17.5732 0H52.4854Z" fill="#F9F9FA"/>
<path d="M52.4854 1.01562C56.8885 1.01562 61.0182 2.75391 64.1423 5.91797C67.2567 9.08203 68.9749 13.2617 68.9749 17.7246V21.9531H1.10324V17.7148C1.10324 13.252 2.82151 9.05273 5.93587 5.91797C9.03071 2.75391 13.1702 1.01562 17.5732 1.01562H52.4854ZM52.4854 0H17.5732C12.9163 0 8.52304 1.83594 5.22318 5.19531C1.91356 8.53516 0.0976562 12.9883 0.0976562 17.7148V22.9688H69.9707V17.7246C69.9707 12.9883 68.1451 8.53516 64.8452 5.19531C61.5356 1.83594 57.152 0 52.4854 0Z" fill="#909090"/>
<path d="M0.0976562 35.3613V50H69.9707V35.3613H0.0976562Z" fill="#F9F9FA"/>
<path d="M68.9652 36.377V48.9746H1.10324V36.377H68.9652ZM69.9707 35.3613H0.0976562V50H69.9707V35.3613Z" fill="#909090"/>
</g>
<defs>
<clipPath id="clip0">
<rect width="70" height="50" fill="white"/>
</clipPath>
</defs>
</svg>
