<svg width="70" height="50" viewBox="0 0 70 50" fill="none" xmlns="http://www.w3.org/2000/svg">
<path d="M0 17.998C0 8.05664 8.05439 0 17.9833 0H51.9679C61.9066 0 69.9512 8.05664 69.9512 17.998V50H0V17.998Z" fill="#F9F9FA"/>
<path d="M51.9777 0.976562C56.5272 0.976562 60.7936 2.74414 64.0153 5.9668C67.2273 9.17969 69.0042 13.457 69.0042 18.0078V49.0234H0.97629V17.998C0.97629 13.457 2.74338 9.17969 5.96513 5.9668C9.17713 2.74414 13.4533 0.976562 17.9833 0.976562H51.9777ZM51.9777 0H17.9833C8.05439 0 0 8.05664 0 17.998V50H69.9609V17.998C69.9609 8.05664 61.9066 0 51.9777 0Z" fill="#909090"/>
<path d="M28.9965 35.9961C28.9965 39.3066 26.3117 41.9922 23.0021 41.9922C19.6925 41.9922 17.0077 39.3066 17.0077 35.9961C17.0077 32.6855 19.6925 30 23.0021 30C26.3117 30 28.9965 32.6855 28.9965 35.9961Z" fill="white"/>
<path d="M39.9895 40.9961C39.9895 42.6562 38.6423 43.9941 36.9923 43.9941C35.3424 43.9941 33.9951 42.6465 33.9951 40.9961C33.9951 39.3457 35.3424 37.998 36.9923 37.998C38.6423 37.998 39.9895 39.3457 39.9895 40.9961Z" fill="white"/>
<path d="M52.984 32.002C52.984 34.209 51.1974 36.0059 48.9812 36.0059C46.7748 36.0059 44.9785 34.2188 44.9785 32.002C44.9785 29.7949 46.7651 27.998 48.9812 27.998C51.1974 27.998 52.984 29.7949 52.984 32.002Z" fill="white"/>
<path d="M23.9965 20.9961C23.9965 23.2031 22.2099 25 19.9937 25C17.7873 25 15.9909 23.2129 15.9909 20.9961C15.9909 18.7793 17.7775 16.9922 19.9937 16.9922C22.2001 17.002 23.9965 18.7891 23.9965 20.9961Z" fill="white"/>
<path d="M29.9924 12.0019C29.9924 13.1055 29.0942 14.0039 27.991 14.0039C26.8878 14.0039 25.9896 13.1055 25.9896 12.0019C25.9896 10.8984 26.8878 10 27.991 10C29.0942 10 29.9924 10.8984 29.9924 12.0019Z" fill="white"/>
<path d="M50.9812 17.002C50.9812 18.6621 49.6339 20 47.984 20C46.334 20 44.9868 18.6523 44.9868 17.002C44.9868 15.3418 46.334 14.0039 47.984 14.0039C49.6339 14.0039 50.9812 15.3418 50.9812 17.002Z" fill="white"/>
<path d="M41.991 25C41.991 28.8672 38.8571 32.0019 34.991 32.0019C31.1249 32.0019 27.991 28.8672 27.991 25C27.991 21.1328 31.1249 17.998 34.991 17.998C38.8571 17.998 41.991 21.1328 41.991 25Z" fill="white"/>
<path d="M22.992 30C19.6824 30 16.9976 32.6855 16.9976 35.9961C16.9976 39.3066 19.6824 41.9922 22.992 41.9922C26.3016 41.9922 28.9864 39.3066 28.9864 35.9961C28.9962 32.6855 26.3114 30 22.992 30ZM22.992 40.9961C20.2291 40.9961 17.9934 38.7598 17.9934 35.9961C17.9934 33.2324 20.2291 30.9961 22.992 30.9961C25.7549 30.9961 27.9906 33.2324 27.9906 35.9961C27.9906 38.7598 25.7549 40.9961 22.992 40.9961Z" fill="#909090"/>
<path d="M36.9923 37.998C35.3326 37.998 33.9951 39.3457 33.9951 40.9961C33.9951 42.6465 35.3424 43.9941 36.9923 43.9941C38.6423 43.9941 39.9895 42.6465 39.9895 40.9961C39.9895 39.3457 38.6423 37.998 36.9923 37.998ZM36.9923 42.998C35.8891 42.998 34.9909 42.0996 34.9909 40.9961C34.9909 39.8926 35.8891 38.9941 36.9923 38.9941C38.0955 38.9941 38.9937 39.8926 38.9937 40.9961C38.9937 42.0996 38.0955 42.998 36.9923 42.998Z" fill="#909090"/>
<path d="M48.9895 27.998C46.7831 27.998 44.9868 29.7852 44.9868 32.002C44.9868 34.209 46.7734 36.0059 48.9895 36.0059C51.196 36.0059 52.9923 34.2188 52.9923 32.002C52.9826 29.7949 51.196 27.998 48.9895 27.998ZM48.9895 35C47.3299 35 45.9923 33.6523 45.9923 32.002C45.9923 30.3516 47.3396 29.0039 48.9895 29.0039C50.6492 29.0039 51.9868 30.3516 51.9868 32.002C51.9868 33.6523 50.6395 35 48.9895 35Z" fill="#909090"/>
<path d="M19.9937 17.002C17.7873 17.002 15.9909 18.7891 15.9909 21.0059C15.9909 23.2129 17.7775 25.0098 19.9937 25.0098C22.2001 25.0098 23.9965 23.2227 23.9965 21.0059C23.9965 18.7891 22.2001 17.002 19.9937 17.002ZM19.9937 24.0039C18.334 24.0039 16.9965 22.6562 16.9965 21.0059C16.9965 19.3457 18.3438 18.0078 19.9937 18.0078C21.6534 18.0078 22.9909 19.3555 22.9909 21.0059C22.9909 22.6562 21.6534 24.0039 19.9937 24.0039Z" fill="#909090"/>
<path d="M27.991 10C26.8878 10 25.9896 10.8984 25.9896 12.0019C25.9896 13.1055 26.8878 14.0039 27.991 14.0039C29.0942 14.0039 29.9924 13.1055 29.9924 12.0019C29.9924 10.8984 29.0942 10 27.991 10ZM27.991 12.998C27.4345 12.998 26.9951 12.5488 26.9951 12.0019C26.9951 11.4453 27.4442 11.0059 27.991 11.0059C28.5474 11.0059 28.9868 11.4551 28.9868 12.0019C28.9965 12.5488 28.5474 12.998 27.991 12.998Z" fill="#909090"/>
<path d="M47.984 14.0039C46.3243 14.0039 44.9868 15.3516 44.9868 17.002C44.9868 18.6621 46.334 20 47.984 20C49.6339 20 50.9812 18.6523 50.9812 17.002C50.9812 15.3418 49.6437 14.0039 47.984 14.0039ZM47.984 19.0039C46.8808 19.0039 45.9826 18.1055 45.9826 17.002C45.9826 15.8984 46.8808 15 47.984 15C49.0872 15 49.9854 15.8984 49.9854 17.002C49.9854 18.1055 49.0872 19.0039 47.984 19.0039Z" fill="#909090"/>
<path d="M34.991 17.998C31.1249 17.998 27.991 21.1328 27.991 25C27.991 28.8672 31.1249 32.0019 34.991 32.0019C38.8571 32.0019 41.991 28.8672 41.991 25C41.991 21.1328 38.8571 17.998 34.991 17.998ZM34.991 30.9961C31.6813 30.9961 28.9965 28.3105 28.9965 25C28.9965 21.6894 31.6813 19.0039 34.991 19.0039C38.3006 19.0039 40.9854 21.6894 40.9854 25C40.9854 28.3105 38.3006 30.9961 34.991 30.9961Z" fill="#909090"/>
</svg>
