<svg width="71" height="50" viewBox="0 0 71 50" fill="none" xmlns="http://www.w3.org/2000/svg">
<g clip-path="url(#clip0)">
<path d="M27.9988 50V2.99805H42.0027V50H27.9988Z" fill="#909090"/>
<path d="M35.0007 22.002C38.8679 22.002 42.0027 25.1367 42.0027 29.0039C42.0027 32.8711 38.8679 36.0059 35.0007 36.0059C31.1335 36.0059 27.9988 32.8711 27.9988 29.0039C27.9988 25.1367 31.1335 22.002 35.0007 22.002ZM35.0007 37.9981C38.8679 37.9981 42.0027 41.1328 42.0027 45C42.0027 48.8672 38.8679 52.002 35.0007 52.002C31.1335 52.002 27.9988 48.8672 27.9988 45C27.9988 41.1328 31.1335 37.9981 35.0007 37.9981ZM42.0027 12.9981C42.0027 9.13086 38.8679 5.99609 35.0007 5.99609C31.1335 5.99609 27.9988 9.13086 27.9988 12.9981C27.9988 16.8652 31.1335 20 35.0007 20C38.8679 20 42.0027 16.8652 42.0027 12.9981Z" fill="white"/>
<path d="M17.9883 0C8.05664 0 0 8.05664 0 17.998V50H69.9805V17.998C69.9805 8.05664 61.9238 0 51.9922 0H40.9961V49.0039H29.0039V0H17.9883Z" fill="#F9F9FA"/>
<path d="M0 50V17.998C0 8.05664 8.05664 0 17.9883 0H29.0039V49.0039H41.0059V0H51.9922C61.9336 0 69.9805 8.05664 69.9805 17.998V50H0ZM68.9844 49.0039V17.998C68.9844 8.61328 61.377 0.996094 51.9922 0.996094H42.002V48.9941L68.9844 49.0039ZM27.998 0.996094H17.9883C8.60352 0.996094 0.996094 8.60352 0.996094 17.998V49.0039H27.998V0.996094Z" fill="#909090"/>
</g>
<defs>
<clipPath id="clip0">
<rect width="70.0195" height="50" fill="white"/>
</clipPath>
</defs>
</svg>
