<svg width="90" height="50" viewBox="0 0 90 50" fill="none" xmlns="http://www.w3.org/2000/svg">
<path d="M88.7798 49.0039C88.897 47.6855 88.9555 46.3477 88.9555 45C88.9555 20.7031 69.2668 0.996094 44.9707 0.996094C20.6746 0.996094 0.995662 20.7031 0.995662 45C0.995662 46.3477 1.05423 47.6855 1.17137 49.0039H19.2885C19.0835 47.6953 18.9859 46.3672 18.9859 45C18.9859 30.6445 30.6215 19.0039 44.9707 19.0039C59.32 19.0039 70.9653 30.6445 70.9653 45C70.9653 46.3574 70.8579 47.6953 70.6627 49.0039H88.7798ZM89.6876 50C89.8731 48.3594 89.961 46.6895 89.961 45C89.961 20.1465 69.8232 0 44.9805 0C20.1377 0 0 20.1465 0 45C0 46.6895 0.0976139 48.3594 0.273319 50H20.4892C20.4208 49.668 20.3623 49.3359 20.3037 49.0039C20.0987 47.7051 19.9816 46.3672 19.9816 45C19.9816 31.1914 31.1681 20 44.9707 20C58.7733 20 69.9599 31.1914 69.9599 45C69.9599 46.3574 69.8525 47.6953 69.6377 49.0039C69.5792 49.3359 69.5206 49.668 69.4523 50H89.6876Z" fill="#F9F9FA"/>
<path d="M44.9805 0C20.1377 0 0 20.1465 0 45C0 46.6895 0.0976139 48.3594 0.273319 50H20.4892C20.4208 49.668 20.3623 49.3359 20.3037 49.0039C20.0987 47.7051 19.9816 46.3672 19.9816 45C19.9816 31.1914 31.1681 20 44.9707 20C58.7733 20 69.9599 31.1914 69.9599 45C69.9599 46.3574 69.8525 47.6953 69.6377 49.0039C69.5792 49.3359 69.5206 49.668 69.4523 50H89.6681C89.8536 48.3594 89.9414 46.6895 89.9414 45C89.961 20.1465 69.8232 0 44.9805 0ZM1.18113 49.0039C1.06399 47.6855 1.00542 46.3477 1.00542 45C0.995662 20.7031 20.6941 0.996094 44.9805 0.996094C69.2668 0.996094 88.9653 20.7031 88.9653 45C88.9653 46.3477 88.9067 47.6855 88.7896 49.0039H70.6627C70.8677 47.6953 70.9653 46.3672 70.9653 45C70.9653 30.6445 59.3297 19.0039 44.9805 19.0039C30.6312 19.0039 18.9957 30.6445 18.9957 45C18.9957 46.3574 19.103 47.6953 19.2983 49.0039H1.18113Z" fill="#909090"/>
<path d="M44.9812 14.0039C47.1873 14.0039 48.9834 12.2168 48.9834 10C48.9834 7.79297 47.1971 5.99609 44.9812 5.99609C42.7751 5.99609 40.979 7.7832 40.979 10C40.979 12.207 42.7751 14.0039 44.9812 14.0039ZM65.9682 20.9961C68.1743 20.9961 69.9704 19.209 69.9704 16.9922C69.9704 14.7852 68.184 12.9883 65.9682 12.9883C63.7621 12.9883 61.966 14.7754 61.966 16.9922C61.9758 19.209 63.7621 20.9961 65.9682 20.9961ZM55.9725 16.0059C58.1884 16.0059 59.9747 14.209 59.9747 12.002C59.9747 9.79492 58.1884 7.99805 55.9725 7.99805C53.7567 7.99805 51.9704 9.79492 51.9704 12.002C51.9704 14.2188 53.7665 16.0059 55.9725 16.0059ZM33.9899 15.9961C36.196 15.9961 37.9921 14.209 37.9921 11.9922C37.9921 9.78516 36.2057 7.98828 33.9899 7.98828C31.7838 7.98828 29.9877 9.77539 29.9877 11.9922C29.9877 14.209 31.7741 15.9961 33.9899 15.9961ZM23.9845 21.0059C26.2003 21.0059 27.9866 19.209 27.9866 17.002C27.9866 14.7949 26.2003 12.998 23.9845 12.998C21.7686 12.998 19.9823 14.7949 19.9823 17.002C19.9823 19.2188 21.7784 21.0059 23.9845 21.0059Z" fill="white"/>
<path d="M44.9798 5.99609C42.7737 5.99609 40.9776 7.7832 40.9776 10C40.9776 12.207 42.7639 14.0039 44.9798 14.0039C47.1858 14.0039 48.9819 12.2168 48.9819 10C48.9819 7.79297 47.1858 5.99609 44.9798 5.99609ZM44.9798 12.998C43.3203 12.998 41.983 11.6504 41.983 10C41.983 8.33984 43.3301 7.00195 44.9798 7.00195C46.6294 7.00195 47.9765 8.34961 47.9765 10C47.9765 11.6602 46.6392 12.998 44.9798 12.998ZM65.9667 12.998C63.7607 12.998 61.9646 14.7852 61.9646 17.002C61.9646 19.209 63.7509 21.0059 65.9667 21.0059C68.1728 21.0059 69.9689 19.2188 69.9689 17.002C69.9689 14.7949 68.1826 12.998 65.9667 12.998ZM65.9667 20C64.3073 20 62.97 18.6523 62.97 17.002C62.97 15.3418 64.3171 14.0039 65.9667 14.0039C67.6164 14.0039 68.9635 15.3516 68.9635 17.002C68.9733 18.6523 67.6262 20 65.9667 20ZM51.9689 12.002C51.9689 9.78516 53.765 7.99805 55.9711 7.99805C58.1869 7.99805 59.9733 9.79492 59.9733 12.002C59.9733 14.2188 58.1772 16.0059 55.9711 16.0059C53.7552 16.0059 51.9689 14.209 51.9689 12.002ZM52.9743 12.002C52.9743 13.6523 54.3116 15 55.9711 15C57.6305 15 58.9776 13.6523 58.9678 12.002C58.9678 10.3516 57.6208 9.00391 55.9711 9.00391C54.3214 9.00391 52.9743 10.3418 52.9743 12.002ZM33.9884 7.99805C31.7824 7.99805 29.9863 9.78516 29.9863 12.002C29.9863 14.209 31.7726 16.0059 33.9884 16.0059C36.1945 16.0059 37.9906 14.2188 37.9906 12.002C37.9808 9.79492 36.1945 7.99805 33.9884 7.99805ZM33.9884 15C32.329 15 30.9917 13.6523 30.9917 12.002C30.9917 10.3418 32.3388 9.00391 33.9884 9.00391C35.6381 9.00391 36.9852 10.3516 36.9852 12.002C36.9852 13.6523 35.6381 15 33.9884 15ZM19.9906 17.002C19.9906 14.7852 21.7867 12.998 23.9928 12.998C26.1988 12.998 27.9852 14.7949 27.9949 17.002C27.9949 19.2188 26.1988 21.0059 23.9928 21.0059C21.7769 21.0059 19.9906 19.209 19.9906 17.002ZM20.996 17.002C20.996 18.6523 22.3333 20 23.9928 20C25.6424 20 26.9895 18.6523 26.9895 17.002C26.9895 15.3516 25.6424 14.0039 23.9928 14.0039C22.3431 14.0039 20.996 15.3418 20.996 17.002Z" fill="#909090"/>
</svg>
