<svg width="90" height="50" viewBox="0 0 90 50" fill="none" xmlns="http://www.w3.org/2000/svg">
<path d="M88.7798 49.0039C88.897 47.6855 88.9555 46.3477 88.9555 45C88.9555 20.7031 69.2668 0.996094 44.9707 0.996094C20.6746 0.996094 0.995662 20.7031 0.995662 45C0.995662 46.3477 1.05423 47.6855 1.17137 49.0039H19.2885C19.0835 47.6953 18.9859 46.3672 18.9859 45C18.9859 30.6445 30.6215 19.0039 44.9707 19.0039C59.32 19.0039 70.9653 30.6445 70.9653 45C70.9653 46.3574 70.8579 47.6953 70.6627 49.0039H88.7798ZM89.6876 50C89.8731 48.3594 89.961 46.6895 89.961 45C89.961 20.1465 69.8232 0 44.9805 0C20.1377 0 0 20.1465 0 45C0 46.6895 0.0976139 48.3594 0.273319 50H20.4892C20.4208 49.668 20.3623 49.3359 20.3037 49.0039C20.0987 47.7051 19.9816 46.3672 19.9816 45C19.9816 31.1914 31.1681 20 44.9707 20C58.7733 20 69.9599 31.1914 69.9599 45C69.9599 46.3574 69.8525 47.6953 69.6377 49.0039C69.5792 49.3359 69.5206 49.668 69.4523 50H89.6876Z" fill="#F9F9FA"/>
<path d="M44.9805 0C20.1377 0 0 20.1465 0 45C0 46.6895 0.0976139 48.3594 0.273319 50H20.4892C20.4208 49.668 20.3623 49.3359 20.3037 49.0039C20.0987 47.7051 19.9816 46.3672 19.9816 45C19.9816 31.1914 31.1681 20 44.9707 20C58.7733 20 69.9599 31.1914 69.9599 45C69.9599 46.3574 69.8525 47.6953 69.6377 49.0039C69.5792 49.3359 69.5206 49.668 69.4523 50H89.6681C89.8536 48.3594 89.9414 46.6895 89.9414 45C89.961 20.1465 69.8232 0 44.9805 0ZM1.18113 49.0039C1.06399 47.6855 1.00542 46.3477 1.00542 45C0.995662 20.7031 20.6941 0.996094 44.9805 0.996094C69.2668 0.996094 88.9653 20.7031 88.9653 45C88.9653 46.3477 88.9067 47.6855 88.7896 49.0039H70.6627C70.8677 47.6953 70.9653 46.3672 70.9653 45C70.9653 30.6445 59.3297 19.0039 44.9805 19.0039C30.6312 19.0039 18.9957 30.6445 18.9957 45C18.9957 46.3574 19.103 47.6953 19.2983 49.0039H1.18113Z" fill="#909090"/>
<path d="M23.1829 25.4395L17.0235 17.2852C23.9638 9.72657 33.9205 5 44.9801 5C56.1276 5 66.1623 9.80469 73.1124 17.4609L67.0409 25.7617C61.9161 19.209 53.9411 15 44.9801 15C36.1656 15 28.3077 19.0723 23.1829 25.4395Z" fill="#909090"/>
<path d="M40.7538 12.9883C40.7538 12.666 40.9978 12.4219 41.3199 12.4219C41.6421 12.4219 41.8861 12.666 41.8861 12.9883C41.8861 13.3105 41.6421 13.5547 41.3199 13.5547C41.0759 13.5547 40.7538 13.3105 40.7538 12.9883ZM40.7538 6.97266C40.7538 6.65039 40.9978 6.40625 41.3199 6.40625C41.6421 6.40625 41.8861 6.65039 41.8861 6.97266C41.8861 7.29492 41.6421 7.53906 41.3199 7.53906C41.0759 7.61719 40.7538 7.29492 40.7538 6.97266ZM41.398 9.98047C41.398 8.02734 43.0184 6.40625 44.9707 6.40625C46.923 6.40625 48.5434 8.02734 48.5434 9.98047C48.5434 11.9336 46.923 13.5547 44.9707 13.5547C43.0282 13.5547 41.398 11.9238 41.398 9.98047ZM47.987 12.9883C47.987 12.666 48.231 12.4219 48.5532 12.4219C48.8753 12.4219 49.1193 12.666 49.1193 12.9883C49.1193 13.3105 48.8753 13.5547 48.5532 13.5547C48.231 13.5547 47.987 13.3105 47.987 12.9883ZM47.987 6.97266C47.987 6.65039 48.231 6.40625 48.5532 6.40625C48.8753 6.40625 49.1193 6.65039 49.1193 6.97266C49.1193 7.29492 48.8753 7.53906 48.5532 7.53906C48.231 7.61719 47.987 7.29492 47.987 6.97266Z" fill="#F9F9FA"/>
<path d="M31.4908 16.0749C31.4127 15.7527 31.5689 15.4207 31.8129 15.3425C32.1351 15.2644 32.467 15.4207 32.545 15.6648C32.6231 15.9871 32.467 16.3191 32.2229 16.3972C31.9789 16.5632 31.647 16.3972 31.4908 16.0749ZM29.4604 10.4695C29.3824 10.1472 29.5385 9.81519 29.7826 9.73706C30.1047 9.65894 30.4366 9.81519 30.5147 10.0593C30.5928 10.3816 30.4366 10.7136 30.1925 10.7918C29.9485 10.9578 29.5385 10.7917 29.4604 10.4695ZM31.0027 13.0671C30.3487 11.2019 31.2468 9.16089 33.1112 8.42847C34.9756 7.77418 37.0158 8.67261 37.7381 10.5378C38.3921 12.4031 37.4941 14.4441 35.6296 15.1667C33.7652 15.9089 31.7349 14.9324 31.0027 13.0671ZM38.2359 13.6335C38.1578 13.3113 38.314 12.9792 38.5581 12.9011C38.8802 12.823 39.2121 12.9792 39.2902 13.2234C39.3683 13.5457 39.2121 13.8777 38.968 13.9558C38.724 14.1218 38.3921 13.9656 38.2359 13.6335ZM36.2056 8.02808C36.1275 7.70582 36.2837 7.37378 36.5277 7.29566C36.8498 7.21753 37.1817 7.37378 37.2598 7.61792C37.3379 7.94019 37.1817 8.27222 36.9377 8.35035C36.6839 8.43824 36.2837 8.35035 36.2056 8.02808Z" fill="#F9F9FA"/>
<path d="M23.8471 22.1669C23.6031 21.9228 23.6812 21.5126 23.9252 21.3564C24.1693 21.1904 24.5792 21.1904 24.7354 21.4345C24.9014 21.6786 24.9014 22.0888 24.6573 22.245C24.4133 22.4111 24.0912 22.4111 23.8471 22.1669ZM20.0304 17.6161C19.7864 17.372 19.8645 16.9619 20.1085 16.8056C20.3526 16.6396 20.7625 16.6396 20.9187 16.8837C21.0847 17.1279 21.0847 17.538 20.8406 17.6943C20.5966 17.8603 20.1964 17.8603 20.0304 17.6161ZM22.3829 19.4911C21.0847 17.9482 21.3287 15.6728 22.7929 14.4521C24.3352 13.1533 26.6096 13.3974 27.8298 14.8622C29.128 16.4052 28.884 18.6806 27.4198 19.9013C25.8775 21.2001 23.6812 21.0341 22.3829 19.4911ZM29.3721 17.538C29.128 17.2939 29.2061 16.8837 29.4502 16.7275C29.6942 16.4833 30.1042 16.5615 30.2604 16.8056C30.5044 17.0497 30.4263 17.4599 30.1823 17.6161C29.9382 17.8603 29.538 17.8603 29.3721 17.538ZM25.4773 12.9872C25.2332 12.7431 25.3113 12.3329 25.5554 12.1767C25.7994 12.0107 26.2094 12.0107 26.3656 12.2548C26.5218 12.499 26.5315 12.9091 26.2875 13.0654C26.0434 13.2314 25.7213 13.2314 25.4773 12.9872Z" fill="#F9F9FA"/>
<path d="M59.6813 16.8069C59.9253 16.5627 60.2475 16.4846 60.4915 16.7287C60.7355 16.9729 60.8136 17.2951 60.5696 17.5393C60.3256 17.7834 60.0034 17.8615 59.7594 17.6174C59.5251 17.3733 59.4373 17.051 59.6813 16.8069ZM63.5078 12.2561C63.7518 12.0119 64.0739 11.9338 64.318 12.178C64.562 12.4221 64.6401 12.7444 64.3961 12.9885C64.152 13.2326 63.8299 13.3108 63.5859 13.0666C63.3418 12.8225 63.3418 12.5002 63.5078 12.2561ZM62.0436 14.8537C63.3418 13.3108 65.6162 13.1447 67.0805 14.4436C68.6228 15.7424 68.7887 18.0178 67.4904 19.4826C66.1922 21.0256 63.9178 21.1916 62.4535 19.8928C60.9796 18.6721 60.8234 16.3967 62.0436 14.8537ZM65.2063 21.4358C65.4503 21.1916 65.7724 21.1135 66.0165 21.3576C66.2605 21.6018 66.3386 21.924 66.0946 22.1682C65.8505 22.4123 65.5284 22.4905 65.2844 22.2463C65.0501 22.0119 64.9622 21.6799 65.2063 21.4358ZM69.0327 16.8069C69.2768 16.5627 69.5989 16.4846 69.8429 16.7287C70.087 16.9729 70.1651 17.2951 69.921 17.5393C69.677 17.7834 69.3549 17.8615 69.1108 17.6174C68.8668 17.3733 68.8668 17.051 69.0327 16.8069Z" fill="#F9F9FA"/>
<path d="M50.5841 13.2333C50.6622 12.911 51.0722 12.745 51.3162 12.911C51.6384 12.9891 51.8043 13.3993 51.6384 13.6434C51.5603 13.9657 51.1503 14.1317 50.9063 13.9657C50.5841 13.8778 50.506 13.5555 50.5841 13.2333ZM52.6145 7.61805C52.6926 7.29579 53.1026 7.12977 53.3466 7.29579C53.6687 7.37391 53.8347 7.78407 53.6687 8.02821C53.5906 8.35047 53.1807 8.51649 52.9366 8.35047C52.6926 8.27235 52.5364 7.86219 52.6145 7.61805ZM52.1264 10.6259C52.7804 8.76063 54.8889 7.78407 56.7631 8.51649C58.6275 9.17079 59.6036 11.2802 58.8715 13.1552C58.2175 15.0204 56.1091 15.997 54.2349 15.2645C52.4485 14.5321 51.4822 12.5009 52.1264 10.6259ZM57.3292 15.6649C57.4073 15.3427 57.8173 15.1766 58.0613 15.3427C58.3835 15.4208 58.5494 15.8309 58.3835 16.0751C58.3054 16.3973 57.8954 16.5634 57.6514 16.3973C57.4073 16.3192 57.2511 15.997 57.3292 15.6649ZM59.3596 10.0595C59.4377 9.73719 59.8477 9.57118 60.0917 9.73719C60.4138 9.81532 60.5798 10.2255 60.4138 10.4696C60.3357 10.7919 59.9258 10.9579 59.6817 10.7919C59.4377 10.7138 59.2815 10.3817 59.3596 10.0595Z" fill="#F9F9FA"/>
</svg>
