<svg width="90" height="50" viewBox="0 0 90 50" fill="none" xmlns="http://www.w3.org/2000/svg">
<path d="M88.7798 49.0039C88.897 47.6855 88.9555 46.3477 88.9555 45C88.9555 20.7031 69.2668 0.996094 44.9707 0.996094C20.6746 0.996094 0.995662 20.7031 0.995662 45C0.995662 46.3477 1.05423 47.6855 1.17137 49.0039H19.2885C19.0835 47.6953 18.9859 46.3672 18.9859 45C18.9859 30.6445 30.6215 19.0039 44.9707 19.0039C59.32 19.0039 70.9653 30.6445 70.9653 45C70.9653 46.3574 70.8579 47.6953 70.6627 49.0039H88.7798ZM89.6876 50C89.8731 48.3594 89.961 46.6895 89.961 45C89.961 20.1465 69.8232 0 44.9805 0C20.1377 0 0 20.1465 0 45C0 46.6895 0.0976139 48.3594 0.273319 50H20.4892C20.4208 49.668 20.3623 49.3359 20.3037 49.0039C20.0987 47.7051 19.9816 46.3672 19.9816 45C19.9816 31.1914 31.1681 20 44.9707 20C58.7733 20 69.9599 31.1914 69.9599 45C69.9599 46.3574 69.8525 47.6953 69.6377 49.0039C69.5792 49.3359 69.5206 49.668 69.4523 50H89.6876Z" fill="#F9F9FA"/>
<path d="M44.9805 0C20.1377 0 0 20.1465 0 45C0 46.6895 0.0976139 48.3594 0.273319 50H20.4892C20.4208 49.668 20.3623 49.3359 20.3037 49.0039C20.0987 47.7051 19.9816 46.3672 19.9816 45C19.9816 31.1914 31.1681 20 44.9707 20C58.7733 20 69.9599 31.1914 69.9599 45C69.9599 46.3574 69.8525 47.6953 69.6377 49.0039C69.5792 49.3359 69.5206 49.668 69.4523 50H89.6681C89.8536 48.3594 89.9414 46.6895 89.9414 45C89.961 20.1465 69.8232 0 44.9805 0ZM1.18113 49.0039C1.06399 47.6855 1.00542 46.3477 1.00542 45C0.995662 20.7031 20.6941 0.996094 44.9805 0.996094C69.2668 0.996094 88.9653 20.7031 88.9653 45C88.9653 46.3477 88.9067 47.6855 88.7896 49.0039H70.6627C70.8677 47.6953 70.9653 46.3672 70.9653 45C70.9653 30.6445 59.3297 19.0039 44.9805 19.0039C30.6312 19.0039 18.9957 30.6445 18.9957 45C18.9957 46.3574 19.103 47.6953 19.2983 49.0039H1.18113Z" fill="#909090"/>
<path d="M23.1829 25.4395L17.0235 17.2852C23.9638 9.72657 33.9205 5 44.9801 5C56.1276 5 66.1623 9.80469 73.1124 17.4609L67.0409 25.7617C61.9161 19.209 53.9411 15 44.9801 15C36.1656 15 28.3077 19.0723 23.1829 25.4395Z" fill="#909090"/>
<path d="M48.9822 10C48.9822 12.207 47.1959 14.0039 44.9801 14.0039C42.774 14.0039 40.9779 12.2168 40.9779 10C40.9779 7.79297 42.7642 5.99609 44.9801 5.99609C47.1861 5.99609 48.9822 7.79297 48.9822 10ZM69.4714 17.002C69.4714 19.209 67.6851 21.0059 65.4692 21.0059C63.2631 21.0059 61.4671 19.2188 61.4671 17.002C61.4671 14.7949 63.2534 12.998 65.4692 12.998C67.6753 12.998 69.4714 14.7949 69.4714 17.002ZM55.9714 15.9961C58.1775 15.9961 59.9736 14.209 59.9736 11.9922C59.9736 9.78516 58.1872 7.98828 55.9714 7.98828C53.7556 7.98828 51.9692 9.77539 51.9692 11.9922C51.979 14.209 53.7653 15.9961 55.9714 15.9961ZM37.9812 12.002C37.9812 14.209 36.1948 16.0059 33.979 16.0059C31.7632 16.0059 29.9768 14.2188 29.9768 12.002C29.9768 9.79492 31.7632 7.99805 33.979 7.99805C36.1948 7.99805 37.9812 9.79492 37.9812 12.002ZM24.4909 20.9961C26.697 20.9961 28.4931 19.209 28.4931 16.9922C28.4931 14.7852 26.7068 12.9883 24.4909 12.9883C22.2751 12.9883 20.4888 14.7754 20.4888 16.9922C20.4888 19.209 22.2849 20.9961 24.4909 20.9961Z" fill="white"/>
</svg>
