<svg width="70" height="50" viewBox="0 0 70 50" fill="none" xmlns="http://www.w3.org/2000/svg">
<path d="M0 17.998C0 8.05664 8.05439 0 17.9833 0H51.9679C61.9066 0 69.9512 8.05664 69.9512 17.998V50H0V17.998Z" fill="#F9F9FA"/>
<path d="M51.9777 0.976562C56.5272 0.976562 60.7936 2.74414 64.0153 5.9668C67.2273 9.17969 69.0042 13.457 69.0042 18.0078V49.0234H0.97629V17.998C0.97629 13.457 2.74338 9.17969 5.96513 5.9668C9.17713 2.74414 13.4533 0.976562 17.9833 0.976562H51.9777ZM51.9777 0H17.9833C8.05439 0 0 8.05664 0 17.998V50H69.9609V17.998C69.9609 8.05664 61.9066 0 51.9777 0Z" fill="#909090"/>
<path d="M33.9951 0H35.9971V50H33.9951V0Z" fill="#909090"/>
<path d="M41.991 27.998C41.991 31.8652 38.8571 35 34.991 35C31.1249 35 27.991 31.8652 27.991 27.998C27.991 24.1309 31.1249 20.9961 34.991 20.9961C38.8571 20.9961 41.991 24.1309 41.991 27.998Z" fill="#797979"/>
<path d="M34.9906 21.5039C31.3978 21.5039 28.4885 24.4141 28.4885 28.0078C28.4885 31.6016 31.3978 34.5117 34.9906 34.5117C38.5833 34.5117 41.4926 31.6016 41.4926 28.0078C41.4926 24.4141 38.5833 21.5039 34.9906 21.5039ZM27.4927 27.998C27.4927 23.8574 30.8511 20.498 34.9906 20.498C39.13 20.498 42.4885 23.8574 42.4885 27.998C42.4885 32.1387 39.13 35.498 34.9906 35.498C30.8511 35.498 27.4927 32.1387 27.4927 27.998Z" fill="white"/>
</svg>
