<svg width="70" height="50" viewBox="0 0 70 50" fill="none" xmlns="http://www.w3.org/2000/svg">
<path d="M0 17.998C0 8.05664 8.05439 0 17.9833 0H51.9679C61.9066 0 69.9512 8.05664 69.9512 17.998V50H0V17.998Z" fill="#F9F9FA"/>
<path d="M51.9777 0.976562C56.5272 0.976562 60.7936 2.74414 64.0153 5.9668C67.2273 9.17969 69.0042 13.457 69.0042 18.0078V49.0234H0.97629V17.998C0.97629 13.457 2.74338 9.17969 5.96513 5.9668C9.17713 2.74414 13.4533 0.976562 17.9833 0.976562H51.9777ZM51.9777 0H17.9833C8.05439 0 0 8.05664 0 17.998V50H69.9609V17.998C69.9609 8.05664 61.9066 0 51.9777 0Z" fill="#909090"/>
<path d="M17.9833 0C8.05439 0 0 8.05664 0 17.998V50H24.993V0H17.9833Z" fill="#909090"/>
<path d="M19.994 29.0039C19.994 32.8711 16.8601 36.0058 12.994 36.0058C9.12791 36.0058 5.99402 32.8711 5.99402 29.0039C5.99402 25.1367 9.12791 22.002 12.994 22.002C16.8601 22.002 19.994 25.1367 19.994 29.0039Z" fill="#797979"/>
<path d="M12.9938 22.5C9.40101 22.5 6.49167 25.4102 6.49167 29.0039C6.49167 32.5977 9.40101 35.5078 12.9938 35.5078C16.5865 35.5078 19.4958 32.5977 19.4958 29.0039C19.4958 25.4102 16.5865 22.5 12.9938 22.5ZM5.49585 29.0039C5.49585 24.8633 8.85429 21.5039 12.9938 21.5039C17.1332 21.5039 20.4917 24.8633 20.4917 29.0039C20.4917 33.1445 17.1332 36.5039 12.9938 36.5039C8.85429 36.5039 5.49585 33.1445 5.49585 29.0039Z" fill="white"/>
</svg>
