<svg width="70" height="50" viewBox="0 0 70 50" fill="none" xmlns="http://www.w3.org/2000/svg">
<path d="M0 17.998C0 8.05664 8.05439 0 17.9833 0H51.9679C61.9066 0 69.9512 8.05664 69.9512 17.998V50H0V17.998Z" fill="#F9F9FA"/>
<path d="M51.9777 0.976562C56.5272 0.976562 60.7936 2.74414 64.0153 5.9668C67.2273 9.17969 69.0042 13.457 69.0042 18.0078V49.0234H0.97629V17.998C0.97629 13.457 2.74338 9.17969 5.96513 5.9668C9.17713 2.74414 13.4533 0.976562 17.9833 0.976562H51.9777ZM51.9777 0H17.9833C8.05439 0 0 8.05664 0 17.998V50H69.9609V17.998C69.9609 8.05664 61.9066 0 51.9777 0Z" fill="#909090"/>
<path d="M51.9965 0C61.9351 0 69.9797 8.05664 69.9797 17.998V50H44.9867V0H51.9965Z" fill="#909090"/>
<path d="M64.9825 29.0039C64.9825 32.8711 61.8487 36.0058 57.9825 36.0058C54.1164 36.0058 50.9825 32.8711 50.9825 29.0039C50.9825 25.1367 54.1164 22.002 57.9825 22.002C61.8487 22.002 64.9825 25.1367 64.9825 29.0039Z" fill="#797979"/>
<path d="M57.9822 22.5C54.3894 22.5 51.4801 25.4102 51.4801 29.0039C51.4801 32.5977 54.3894 35.5078 57.9822 35.5078C61.5749 35.5078 64.4842 32.5977 64.4842 29.0039C64.4842 25.4102 61.5749 22.5 57.9822 22.5ZM50.4843 29.0039C50.4843 24.8633 53.8427 21.5039 57.9822 21.5039C62.1216 21.5039 65.4801 24.8633 65.4801 29.0039C65.4801 33.1445 62.1216 36.5039 57.9822 36.5039C53.8427 36.5039 50.4843 33.1445 50.4843 29.0039Z" fill="white"/>
</svg>
