<svg width="70" height="50" viewBox="0 0 70 50" fill="none" xmlns="http://www.w3.org/2000/svg">
<path d="M0 4.26997V19.5231C22.2047 25.4045 34.5232 25.0251 56.3211 19.5231V4.26997C34.5232 -1.23208 22.2047 -1.61141 0 4.26997Z" fill="#909090"/>
<path d="M56.3211 19.5231C34.5232 25.0251 22.2047 25.4045 0 19.5231C7.34623 22.8783 22.9258 32.9178 26.8438 50L65.3367 50C65.3367 31.3926 59.6881 23.183 56.3211 19.5231Z" fill="#909090"/>
<path d="M56.3211 4.26997V19.5231C59.6881 23.183 65.3367 31.3926 65.3367 50H69.8951C71.1195 19.2521 61.3206 7.01551 56.3211 4.26997Z" fill="#A5A5A5"/>
<path d="M0 11.8852V19.523C22.2047 25.4044 34.5232 25.0251 56.3211 19.523V11.5914L0 11.8852Z" fill="#797979"/>
<path d="M56.0189 11.8978L0.302173 11.6072V4.50265C11.2811 1.60691 19.8252 0.256455 28.3114 0.303353C36.7967 0.350245 45.2399 1.7942 56.0189 4.50545V11.8978Z" fill="#F9F9FA" stroke="#797979" stroke-width="0.604346"/>
</svg>
