<svg width="70" height="50" viewBox="0 0 70 50" fill="none" xmlns="http://www.w3.org/2000/svg">
<g clip-path="url(#clip0_5022_57306)">
<path d="M34.2047 66.0005H35.7987C35.2661 66.0134 34.7347 66.0134 34.2047 66.0005Z" fill="white"/>
<path d="M6.70734 50.0005C5.63993 48.2195 4.72595 46.3116 3.98936 44.2878C-2.24409 27.1616 6.58628 8.22476 23.7126 1.99131C40.8388 -4.24214 59.7756 4.58823 66.0091 21.7145C69.5511 31.4462 68.2292 41.7625 63.2852 50.0005L50.5009 50.0004C57.1802 43.9049 59.8968 34.1592 56.6121 25.1347C52.2676 13.1982 39.0692 7.04371 27.1328 11.3882C15.1963 15.7328 9.04176 28.9311 13.3863 40.8676C14.7038 44.4875 16.8356 47.5756 19.4995 50.0005H6.70734Z" fill="white"/>
<path d="M35.1876 66.001C35.0623 66.0017 34.9371 66.0017 34.8118 66.001L35.1876 66.001Z" fill="#A5A5A5"/>
<path d="M63.2843 50.001C63.8773 49.0142 64.4194 47.9953 64.9078 46.9479C66.7393 43.0203 67.7792 38.7704 67.9683 34.4409C68.1573 30.1114 67.4917 25.7871 66.0095 21.7148L56.6126 25.135C59.8973 34.1596 57.1806 43.9055 50.5011 50.001L63.2843 50.001Z" fill="#A5A5A5"/>
<path d="M19.5002 50.001H6.71507C5.62831 48.1928 4.71484 46.2802 3.98981 44.2882L13.3867 40.868C14.7043 44.4879 16.8362 47.5761 19.5002 50.001Z" fill="#A5A5A5"/>
<path fill-rule="evenodd" clip-rule="evenodd" d="M34.2145 66.0083H35.8084C35.2759 66.0212 34.7444 66.0212 34.2145 66.0083ZM7.28941 49.0083C6.37627 47.4217 5.58692 45.7343 4.93882 43.9536C-1.10574 27.3463 7.45704 8.98338 24.0643 2.93882C40.6716 -3.10574 59.0346 5.45704 65.0791 22.0643C68.4445 31.3106 67.2828 41.1003 62.7231 49.0083L62.1562 50.0083H63.295C68.239 41.7703 69.5609 31.454 66.0188 21.7223C59.7854 4.59605 40.8486 -4.23433 23.7223 1.99912C6.59605 8.23258 -2.23433 27.1694 3.99912 44.2956C4.73572 46.3194 5.64969 48.2273 6.7171 50.0083H8L7.28941 49.0083Z" fill="#797979"/>
<path fill-rule="evenodd" clip-rule="evenodd" d="M57.5616 24.8005C60.6921 33.4015 58.5981 42.6285 52.9041 49.0083L51.9219 50.0083H50.5107C50.8649 49.685 51.208 49.3514 51.5397 49.0083C57.4612 42.881 59.7323 33.6884 56.6219 25.1425C52.2774 13.206 39.079 7.05152 27.1425 11.396C15.206 15.7406 9.05152 28.9389 13.3961 40.8754C14.5388 44.015 16.294 46.7545 18.4776 49.0083C18.8117 49.3531 19.1558 49.6865 19.5093 50.0083H18V50L17.1116 49.0083C15.1321 46.7953 13.5331 44.1758 12.4564 41.2175C7.92294 28.762 14.345 14.9898 26.8005 10.4564C39.256 5.92294 53.0282 12.345 57.5616 24.8005Z" fill="#797979"/>
</g>
<defs>
<clipPath id="clip0_5022_57306">
<rect width="70" height="50" fill="white"/>
</clipPath>
</defs>
</svg>
