<svg width="70" height="50" viewBox="0 0 70 50" fill="none" xmlns="http://www.w3.org/2000/svg">
<g clip-path="url(#clip0_309_33)">
<path d="M52.002 0.976562C56.5527 0.976562 60.8203 2.74414 64.043 5.9668C67.2559 9.17969 69.0332 13.457 69.0332 18.0078V49.0234H0.976562V17.998C0.976562 13.457 2.74414 9.17969 5.9668 5.9668C9.17969 2.74414 13.457 0.976562 17.998 0.976562H52.002ZM52.002 0H17.998C8.05664 0 0 8.05664 0 17.998V50H70V17.998C70 8.05664 61.9434 0 52.002 0Z" fill="#797979"/>
<path d="M52.002 0.976562C56.5527 0.976562 60.8203 2.74414 64.043 5.9668C67.2559 9.17969 69.0332 13.457 69.0332 18.0078V49.0234H0.976562V17.998C0.976562 13.457 2.74414 9.17969 5.9668 5.9668C9.17969 2.74414 13.457 0.976562 17.998 0.976562H52.002Z" fill="#F9F9FA"/>
</g>
<path d="M23.35 0H46.65V50H23.35V0Z" fill="#797979"/>
<defs>
<clipPath id="clip0_309_33">
<rect width="70" height="50" fill="white"/>
</clipPath>
</defs>
</svg>
