<svg width="62" height="36" viewBox="0 0 62 36" fill="none" xmlns="http://www.w3.org/2000/svg">
    <path d="M2.29871 0.999863C7.6405 13.9686 8.34363 20.5506 7.21081 35.0038H54.7987C53.6659 20.5506 54.369 13.9686 59.7108 0.999863H2.29871Z" fill="url(#paint0_linear)"/>
    <path d="M59.7107 0.999862C54.3689 13.9686 53.6657 20.5506 54.7985 35.0037H7.21069C8.3435 20.5506 7.64038 13.9686 2.29858 0.999862H59.7107ZM61.1657 0.0233002H59.7107H2.29858H0.843506L1.40015 1.37095C4.15405 8.0604 5.55053 12.7577 6.22436 17.5819C6.95678 22.8749 6.76147 28.3436 6.24389 34.9256L6.16577 35.9803H7.21069H54.7985H55.8532L55.7751 34.9256C55.2575 28.3436 55.0622 22.8651 55.7946 17.5819C56.4587 12.7577 57.8552 8.07017 60.6189 1.37095L61.1657 0.0233002Z" fill="#D2D2D2"/>
    <defs>
        <linearGradient id="paint0_linear" x1="2.29871" y1="18.5406" x2="59.7108" y2="18.5406" gradientUnits="userSpaceOnUse">
            <stop stop-color="#E1E1E1"/>
            <stop offset="0.473958" stop-color="#FBFBFB"/>
            <stop offset="0.979167" stop-color="#E1E1E1"/>
        </linearGradient>
    </defs>
</svg>
