<?xml version="1.0" encoding="utf-8"?>
<!-- Generator: Adobe Illustrator 22.1.0, SVG Export Plug-In . SVG Version: 6.00 Build 0)  -->
<svg version="1.1" id="Warstwa_1" xmlns="http://www.w3.org/2000/svg" xmlns:xlink="http://www.w3.org/1999/xlink" x="0px" y="0px"
	 viewBox="0 0 512 512" style="enable-background:new 0 0 512 512;" xml:space="preserve">
<style type="text/css">
	.st0{fill:#FFFFFF;}
	.st1{fill:#909090;}
</style>
<path class="st0" d="M256,501.8c135.7,0,245.8-110,245.8-245.8c0-135.7-110-245.8-245.8-245.8c-135.7,0-245.8,110-245.8,245.8
	C10.2,391.7,120.3,501.8,256,501.8z M256,512c141.4,0,256-114.6,256-256S397.4,0,256,0S0,114.6,0,256S114.6,512,256,512z"/>
<path class="st1" d="M256,0C114.6,0,0,114.6,0,256s114.6,256,256,256s256-114.6,256-256S397.4,0,256,0z M256,501.8
	c-135.7,0-245.8-110-245.8-245.8c0-135.7,110-245.8,245.8-245.8c135.7,0,245.8,110,245.8,245.8C501.8,391.7,391.7,501.8,256,501.8z"
	/>
<path class="st1" d="M256,0l-72.8,72.8l-19.5-48.7l-9.5,3.8L173,75H75v98l-47.1-18.8l-3.8,9.5l48.7,19.5L0,256l69.6,69.6l-45.9,23
	l4.6,9.1L75,334.4V437h102.8l-23.4,46.8l9.1,4.6l23-45.9L256,512l71.1-71.1l21.5,47.2l9.3-4.2L336.5,437H437V336.5l47,21.3l4.2-9.3
	L441,327l71-71l-71-71l47.2-21.5l-4.2-9.3l-47,21.3V75H334l18.8-47.1l-9.5-3.8l-18.1,45.2L256,0z M253.2,108.6l-64.9-26.4L256,14.5
	l66.4,66.4L253.2,108.6z M426.8,179.1L359,151.6l-28-66.4h95.8V179.1z M85.2,175.8V85.2h94l-27.4,64L85.2,175.8z M345.6,146.2
	l-78.8-32l55.9-22.3L345.6,146.2z M165.2,143.8l21.9-51l52.4,21.3L165.2,143.8z M257.8,391.2L160.9,351l-41.5-100.4l40.1-93.5
	l93.6-37.5l98.1,39.9l40.3,95.5l-39.1,96.2L257.8,391.2z M146.1,162.5L114,237.4l-22-53.3L146.1,162.5z M397,241.7L364.6,165
	l54.5,22.2L397,241.7z M78.5,320.1l-64-64.1l68-68l25.8,62.5L78.5,320.1z M431.1,322.4L402.7,255l27.1-66.7l67.8,67.8L431.1,322.4z
	 M147.5,345.4l-58.4-24.2l24.6-57.5L147.5,345.4z M365.8,345.6l31.4-77.2l22.9,54.3L365.8,345.6z M85.2,426.8v-96.2l67.9,28.2
	l28.1,68H85.2z M332.9,426.8l27.5-67.8l66.4-28v95.8H332.9z M189.4,420.1l-23-55.7l78.1,32.5L189.4,420.1z M347.1,364.6l-22.2,54.5
	L271,396.7L347.1,364.6z M256,497.5l-66.4-66.4l68.2-28.8l66,27.4L256,497.5z"/>
</svg>
